<svg width="14" height="14" viewBox="0 0 14 14" fill="none" xmlns="http://www.w3.org/2000/svg">
<g clip-path="url(#clip0_152_701)">
<path d="M12.4133 3.73346L6.84828 9.29844C6.29411 9.8526 4.64909 10.1093 4.28159 9.74177C3.91409 9.37427 4.16493 7.72927 4.71909 7.1751L10.2899 1.60428C10.4273 1.4544 10.5936 1.33392 10.7789 1.25009C10.9641 1.16627 11.1644 1.12083 11.3677 1.11654C11.5709 1.11227 11.773 1.14922 11.9616 1.22517C12.1502 1.30113 12.3215 1.41453 12.465 1.55849C12.6086 1.70246 12.7215 1.87402 12.7969 2.06282C12.8724 2.25163 12.9088 2.45375 12.904 2.65702C12.8991 2.86028 12.8531 3.06047 12.7688 3.24548C12.6845 3.43048 12.5635 3.59649 12.4133 3.73346Z" stroke="#667085" stroke-linecap="round" stroke-linejoin="round"/>
<path d="M6.41666 2.33301H3.49999C2.88115 2.33301 2.28769 2.57884 1.85011 3.01642C1.41253 3.45401 1.16666 4.0475 1.16666 4.66634V10.4997C1.16666 11.1185 1.41253 11.712 1.85011 12.1496C2.28769 12.5872 2.88115 12.833 3.49999 12.833H9.91666C11.2058 12.833 11.6667 11.783 11.6667 10.4997V7.58301" stroke="#667085" stroke-linecap="round" stroke-linejoin="round"/>
</g>
<defs>
<clipPath id="clip0_152_701">
<rect width="14" height="14" fill="white"/>
</clipPath>
</defs>
</svg>
