<svg xmlns="http://www.w3.org/2000/svg" width="227" height="133" viewBox="0 0 227 133" fill="none">
<rect width="227" height="133" rx="6" fill="#5B8DFF" fill-opacity="0.1"/>
<path d="M91.25 78.9688C90.5625 78.9688 89.9742 78.6977 89.485 78.1555C88.9958 77.6134 88.7508 76.9608 88.75 76.1979V56.8021C88.75 56.0401 88.995 55.388 89.485 54.8459C89.975 54.3037 90.5633 54.0322 91.25 54.0312H108.75C109.438 54.0312 110.026 54.3028 110.516 54.8459C111.006 55.389 111.251 56.041 111.25 56.8021V76.1979C111.25 76.9599 111.005 77.6124 110.516 78.1555C110.027 78.6986 109.438 78.9697 108.75 78.9688H91.25ZM92.5 73.4271H107.5L102.812 66.5L99.0625 72.0417L96.25 67.8854L92.5 73.4271Z" fill="#5B8DFF"/>
</svg>