<svg width="20" height="14" viewBox="0 0 20 14" fill="none" xmlns="http://www.w3.org/2000/svg">
<path fill-rule="evenodd" clip-rule="evenodd" d="M18 0C18.5304 0 19.0391 0.210714 19.4142 0.585786C19.7893 0.960859 20 1.46957 20 2V12C20 12.5304 19.7893 13.0391 19.4142 13.4142C19.0391 13.7893 18.5304 14 18 14H2C1.46957 14 0.960859 13.7893 0.585786 13.4142C0.210714 13.0391 0 12.5304 0 12V2C0 1.46957 0.210714 0.960859 0.585786 0.585786C0.960859 0.210714 1.46957 0 2 0H18ZM18 2H11V4.17C11.5703 4.3716 12.0663 4.74083 12.4231 5.22927C12.7799 5.71771 12.9808 6.30256 12.9994 6.90715C13.018 7.51173 12.8534 8.10783 12.5273 8.61727C12.2012 9.12672 11.7288 9.52573 11.172 9.762L11 9.83V12H18V11H16C15.4954 11.0002 15.0094 10.8096 14.6395 10.4665C14.2695 10.1234 14.0428 9.65316 14.005 9.15L14 9V5C13.9998 4.49542 14.1904 4.00943 14.5335 3.63945C14.8766 3.26947 15.3468 3.04284 15.85 3.005L16 3H18V2ZM9 2H2V3H4C4.50458 2.99984 4.99057 3.19041 5.36055 3.5335C5.73053 3.87659 5.95716 4.34685 5.995 4.85L6 5V9C6.00016 9.50458 5.80959 9.99057 5.4665 10.3605C5.12341 10.7305 4.65316 10.9572 4.15 10.995L4 11H2V12H9V9.83C8.42971 9.6284 7.93366 9.25917 7.57688 8.77073C7.22009 8.28229 7.01923 7.69744 7.00064 7.09285C6.98204 6.48827 7.14658 5.89217 7.47267 5.38273C7.79876 4.87328 8.27118 4.47427 8.828 4.238L9 4.17V2ZM18 5H16V9H18V5ZM4 5H2V9H4V5ZM10 6C9.73478 6 9.48043 6.10536 9.29289 6.29289C9.10536 6.48043 9 6.73478 9 7C9 7.26522 9.10536 7.51957 9.29289 7.70711C9.48043 7.89464 9.73478 8 10 8C10.2652 8 10.5196 7.89464 10.7071 7.70711C10.8946 7.51957 11 7.26522 11 7C11 6.73478 10.8946 6.48043 10.7071 6.29289C10.5196 6.10536 10.2652 6 10 6Z" fill="#232323"/>
</svg>
