<svg width="16" height="12" viewBox="0 0 16 12" fill="none" xmlns="http://www.w3.org/2000/svg">
<path d="M7.99985 8.7931C9.54267 8.7931 10.7934 7.5424 10.7934 5.99958C10.7934 4.45676 9.54267 3.20605 7.99985 3.20605C6.45703 3.20605 5.20633 4.45676 5.20633 5.99958C5.20633 7.5424 6.45703 8.7931 7.99985 8.7931Z" stroke="#667085"/>
<path d="M14.5352 5.14925C14.8451 5.52542 15 5.71346 15 5.99984C15 6.28621 14.8451 6.47426 14.5352 6.85042C13.4018 8.22659 10.9018 10.7887 7.99999 10.7887C5.09813 10.7887 2.59816 8.22659 1.46471 6.85042C1.1549 6.47426 1 6.28621 1 5.99984C1 5.71346 1.1549 5.52542 1.46471 5.14925C2.59816 3.77311 5.09813 1.21094 7.99999 1.21094C10.9018 1.21094 13.4018 3.77311 14.5352 5.14925Z" stroke="#667085"/>
</svg>
