<svg xmlns="http://www.w3.org/2000/svg" width="24" height="24" viewBox="0 0 24 24" fill="none">
<path fill-rule="evenodd" clip-rule="evenodd" d="M9.30001 4.20005C9.30001 3.70299 8.89707 3.30005 8.40001 3.30005C7.90296 3.30005 7.50001 3.70299 7.50001 4.20005V4.68803C7.20497 4.7571 6.92554 4.85372 6.65706 4.99052C5.81033 5.42195 5.12191 6.11036 4.69048 6.95709C4.41887 7.49015 4.30564 8.06632 4.25205 8.72229C4.2 9.35938 4.2 10.1461 4.20001 11.1215V12.8786C4.2 13.854 4.2 14.6407 4.25205 15.2778C4.30564 15.9338 4.41887 16.5099 4.69048 17.043C5.12191 17.8897 5.81033 18.5781 6.65706 19.0096C7.19012 19.2812 7.76629 19.3944 8.42225 19.448C9.05934 19.5001 9.84607 19.5001 10.8215 19.5L14.8816 19.5001C15.2683 19.5001 15.5316 19.5001 15.7637 19.4761C17.8821 19.2566 19.5566 17.5822 19.7761 15.4637C19.8001 15.2317 19.8001 14.9684 19.8 14.5817L19.8 11.1215C19.8 10.1461 19.8 9.35937 19.748 8.72229C19.6944 8.06632 19.5812 7.49015 19.3095 6.95709C18.8781 6.11036 18.1897 5.42195 17.343 4.99052C17.0745 4.85372 16.7951 4.75709 16.5 4.68803V4.20005C16.5 3.70299 16.0971 3.30005 15.6 3.30005C15.103 3.30005 14.7 3.70299 14.7 4.20005V4.51035C14.2518 4.50004 13.7473 4.50004 13.1785 4.50005H10.8215C10.2528 4.50004 9.74819 4.50004 9.30001 4.51035V4.20005ZM7.47424 6.59433C7.71126 6.47356 8.02418 6.39061 8.56883 6.34611C9.12399 6.30075 9.83707 6.30005 10.86 6.30005H13.14C14.163 6.30005 14.876 6.30075 15.4312 6.34611C15.9758 6.39061 16.2888 6.47356 16.5258 6.59433C17.0338 6.85319 17.4469 7.26624 17.7057 7.77427C17.8265 8.01129 17.9095 8.32421 17.954 8.86887C17.9717 9.08553 17.9826 9.32625 17.9893 9.60005H6.01076C6.01747 9.32625 6.02837 9.08553 6.04607 8.86887C6.09057 8.32421 6.17353 8.01129 6.2943 7.77427C6.55315 7.26624 6.9662 6.85319 7.47424 6.59433ZM6.00001 11.4V12.84C6.00001 13.863 6.00071 14.5761 6.04607 15.1312C6.09057 15.6759 6.17353 15.9888 6.2943 16.2258C6.55315 16.7339 6.9662 17.1469 7.47424 17.4058C7.71126 17.5265 8.02418 17.6095 8.56883 17.654C9.12399 17.6993 9.83707 17.7 10.86 17.7H14.8269C15.2888 17.7 15.4511 17.6988 15.5782 17.6857C16.8493 17.554 17.854 16.5493 17.9856 15.2783C17.9988 15.1512 18 14.9888 18 14.5269V11.4H6.00001Z" fill="#718EBF"/>
</svg>