<svg xmlns="http://www.w3.org/2000/svg" width="52" height="50" viewBox="0 0 52 50" fill="none">
<rect x="0.25" y="0.25" width="51.5" height="49.5" rx="3.75" fill="#FBFCFF"/>
<rect x="0.25" y="0.25" width="51.5" height="49.5" rx="3.75" stroke="#A6A6A6" stroke-width="0.5" stroke-dasharray="1 1"/>
<path d="M20.1667 32.5H31.8333C32.7538 32.5 33.5 31.7538 33.5 30.8333V19.1667C33.5 18.2462 32.7538 17.5 31.8333 17.5H20.1667C19.2462 17.5 18.5 18.2462 18.5 19.1667V30.8333C18.5 31.7538 19.2462 32.5 20.1667 32.5ZM20.1667 32.5L29.3333 23.3333L33.5 27.5M24.3333 22.0833C24.3333 22.7737 23.7737 23.3333 23.0833 23.3333C22.393 23.3333 21.8333 22.7737 21.8333 22.0833C21.8333 21.393 22.393 20.8333 23.0833 20.8333C23.7737 20.8333 24.3333 21.393 24.3333 22.0833Z" stroke="#979797" stroke-width="1.66667" stroke-linecap="round" stroke-linejoin="round"/>
</svg>