<svg width="24" height="24" viewBox="0 0 24 24" fill="none" xmlns="http://www.w3.org/2000/svg">
<path d="M2 16.25C1.80109 16.25 1.61032 16.329 1.46967 16.4696C1.32902 16.6103 1.25 16.8011 1.25 17C1.25 17.1989 1.32902 17.3896 1.46967 17.5303C1.61032 17.671 1.80109 17.75 2 17.75V16.25ZM22 6.99997L22.53 7.52997C22.6705 7.38935 22.7493 7.19872 22.7493 6.99997C22.7493 6.80122 22.6705 6.6106 22.53 6.46997L22 6.99997ZM19.47 8.46997C19.3375 8.61215 19.2654 8.80019 19.2688 8.99449C19.2723 9.18879 19.351 9.37418 19.4884 9.51159C19.6258 9.649 19.8112 9.72772 20.0055 9.73115C20.1998 9.73457 20.3878 9.66245 20.53 9.52997L19.47 8.46997ZM20.53 4.46997C20.4613 4.39628 20.3785 4.33718 20.2865 4.29619C20.1945 4.2552 20.0952 4.23316 19.9945 4.23138C19.8938 4.2296 19.7938 4.24813 19.7004 4.28585C19.607 4.32357 19.5222 4.37971 19.451 4.45093C19.3797 4.52215 19.3236 4.60698 19.2859 4.70037C19.2482 4.79376 19.2296 4.89379 19.2314 4.99449C19.2332 5.0952 19.2552 5.19451 19.2962 5.28651C19.3372 5.37851 19.3963 5.46131 19.47 5.52997L20.53 4.46997ZM2 17.75H5.603V16.25H2V17.75ZM11.39 14.473L13.895 10.299L12.609 9.52697L10.105 13.701L11.39 14.473ZM18.397 7.74997H22V6.24997H18.397V7.74997ZM21.47 6.46997L19.47 8.46997L20.53 9.52997L22.53 7.52997L21.47 6.46997ZM22.53 6.46997L20.53 4.46997L19.47 5.52997L21.47 7.52997L22.53 6.46997ZM13.895 10.299C14.329 9.57497 14.629 9.07897 14.901 8.70997C15.164 8.35497 15.369 8.16697 15.59 8.04197L14.851 6.73697C14.384 7.00097 14.031 7.36397 13.696 7.81697C13.37 8.25697 13.028 8.82797 12.609 9.52697L13.895 10.299ZM18.397 6.24997C17.582 6.24997 16.917 6.24997 16.372 6.30197C15.81 6.35697 15.318 6.47197 14.851 6.73697L15.59 8.04197C15.81 7.91697 16.077 7.83797 16.517 7.79497C16.973 7.75097 17.553 7.74997 18.397 7.74997V6.24997ZM5.603 17.75C6.418 17.75 7.083 17.75 7.628 17.698C8.19 17.643 8.682 17.528 9.149 17.263L8.41 15.958C8.19 16.083 7.923 16.162 7.483 16.205C7.027 16.249 6.447 16.25 5.603 16.25V17.75ZM10.105 13.701C9.67 14.425 9.371 14.921 9.099 15.29C8.836 15.645 8.631 15.833 8.41 15.958L9.149 17.263C9.615 16.999 9.969 16.636 10.304 16.183C10.63 15.743 10.971 15.172 11.39 14.473L10.105 13.701ZM2 6.24997C1.80109 6.24997 1.61032 6.32899 1.46967 6.46964C1.32902 6.61029 1.25 6.80106 1.25 6.99997C1.25 7.19888 1.32902 7.38965 1.46967 7.5303C1.61032 7.67095 1.80109 7.74997 2 7.74997V6.24997ZM22 17L22.53 17.53C22.6705 17.3893 22.7493 17.1987 22.7493 17C22.7493 16.8012 22.6705 16.6106 22.53 16.47L22 17ZM20.53 14.47C20.4613 14.3963 20.3785 14.3372 20.2865 14.2962C20.1945 14.2552 20.0952 14.2332 19.9945 14.2314C19.8938 14.2296 19.7938 14.2481 19.7004 14.2858C19.607 14.3236 19.5222 14.3797 19.451 14.4509C19.3797 14.5222 19.3236 14.607 19.2859 14.7004C19.2482 14.7938 19.2296 14.8938 19.2314 14.9945C19.2332 15.0952 19.2552 15.1945 19.2962 15.2865C19.3372 15.3785 19.3963 15.4613 19.47 15.53L20.53 14.47ZM19.47 18.47C19.3963 18.5386 19.3372 18.6214 19.2962 18.7134C19.2552 18.8054 19.2332 18.9047 19.2314 19.0054C19.2296 19.1062 19.2482 19.2062 19.2859 19.2996C19.3236 19.393 19.3797 19.4778 19.451 19.549C19.5222 19.6202 19.607 19.6764 19.7004 19.7141C19.7938 19.7518 19.8938 19.7703 19.9945 19.7686C20.0952 19.7668 20.1945 19.7447 20.2865 19.7038C20.3785 19.6628 20.4613 19.6037 20.53 19.53L19.47 18.47ZM14.443 14.615C14.3945 14.5265 14.3287 14.4487 14.2494 14.3862C14.1701 14.3238 14.0791 14.2779 13.9817 14.2515C13.8843 14.2251 13.7826 14.2186 13.6826 14.2324C13.5827 14.2462 13.4865 14.28 13.4 14.3318C13.3134 14.3837 13.2381 14.4525 13.1788 14.5341C13.1194 14.6157 13.0771 14.7084 13.0544 14.8067C13.0317 14.905 13.0291 15.0069 13.0468 15.1063C13.0644 15.2057 13.1019 15.3004 13.157 15.385L14.443 14.615ZM9.557 9.38597C9.66039 9.5544 9.82607 9.67521 10.018 9.72215C10.21 9.76909 10.4128 9.73836 10.5822 9.63664C10.7516 9.53493 10.8741 9.37044 10.9229 9.17894C10.9718 8.98744 10.943 8.78441 10.843 8.61397L9.557 9.38597ZM2 7.74997H6.668V6.24997H2V7.74997ZM17.332 17.75H22V16.25H17.332V17.75ZM22.53 16.47L20.53 14.47L19.47 15.53L21.47 17.53L22.53 16.47ZM21.47 16.47L19.47 18.47L20.53 19.53L22.53 17.53L21.47 16.47ZM17.332 16.25C16.687 16.25 16.465 16.247 16.269 16.209L15.982 17.681C16.354 17.753 16.747 17.75 17.332 17.75V16.25ZM13.157 15.385C13.457 15.887 13.657 16.226 13.911 16.508L15.026 15.505C14.892 15.356 14.776 15.168 14.443 14.615L13.157 15.385ZM16.269 16.209C15.7892 16.1156 15.3529 15.8684 15.026 15.505L13.911 16.508C14.4556 17.1135 15.1826 17.5252 15.982 17.681L16.269 16.209ZM6.668 7.74997C7.313 7.74997 7.535 7.75297 7.731 7.79097L8.018 6.31897C7.646 6.24697 7.253 6.24997 6.668 6.24997V7.74997ZM10.843 8.61397C10.543 8.11197 10.343 7.77397 10.089 7.49197L8.974 8.49497C9.108 8.64397 9.224 8.83297 9.557 9.38597L10.843 8.61397ZM7.731 7.79097C8.211 7.88497 8.647 8.13097 8.974 8.49497L10.089 7.49197C9.54436 6.88646 8.81739 6.47471 8.018 6.31897L7.731 7.79097Z" fill="#667085"/>
</svg>
