<svg width="24" height="40" viewBox="0 0 24 40" fill="none" xmlns="http://www.w3.org/2000/svg">
<path d="M1.75 24.2502C1.55109 24.2502 1.36032 24.3292 1.21967 24.4698C1.07902 24.6105 1 24.8012 1 25.0002C1 25.1991 1.07902 25.3898 1.21967 25.5305C1.36032 25.6711 1.55109 25.7502 1.75 25.7502V24.2502ZM21.75 15.0002L22.28 15.5302C22.4205 15.3895 22.4993 15.1989 22.4993 15.0002C22.4993 14.8014 22.4205 14.6108 22.28 14.4702L21.75 15.0002ZM19.22 16.4702C19.0875 16.6123 19.0154 16.8004 19.0188 16.9947C19.0223 17.189 19.101 17.3744 19.2384 17.5118C19.3758 17.6492 19.5612 17.7279 19.7555 17.7313C19.9498 17.7348 20.1378 17.6626 20.28 17.5302L19.22 16.4702ZM20.28 12.4702C20.2113 12.3965 20.1285 12.3374 20.0365 12.2964C19.9445 12.2554 19.8452 12.2333 19.7445 12.2316C19.6438 12.2298 19.5438 12.2483 19.4504 12.286C19.357 12.3238 19.2722 12.3799 19.201 12.4511C19.1297 12.5223 19.0736 12.6072 19.0359 12.7006C18.9982 12.7939 18.9796 12.894 18.9814 12.9947C18.9832 13.0954 19.0052 13.1947 19.0462 13.2867C19.0872 13.3787 19.1463 13.4615 19.22 13.5302L20.28 12.4702ZM1.75 25.7502H5.353V24.2502H1.75V25.7502ZM11.14 22.4732L13.645 18.2992L12.359 17.5272L9.855 21.7012L11.14 22.4732ZM18.147 15.7502H21.75V14.2502H18.147V15.7502ZM21.22 14.4702L19.22 16.4702L20.28 17.5302L22.28 15.5302L21.22 14.4702ZM22.28 14.4702L20.28 12.4702L19.22 13.5302L21.22 15.5302L22.28 14.4702ZM13.645 18.2992C14.079 17.5752 14.379 17.0792 14.651 16.7102C14.914 16.3552 15.119 16.1672 15.34 16.0422L14.601 14.7372C14.134 15.0012 13.781 15.3642 13.446 15.8172C13.12 16.2572 12.778 16.8282 12.359 17.5272L13.645 18.2992ZM18.147 14.2502C17.332 14.2502 16.667 14.2502 16.122 14.3022C15.56 14.3572 15.068 14.4722 14.601 14.7372L15.34 16.0422C15.56 15.9172 15.827 15.8382 16.267 15.7952C16.723 15.7512 17.303 15.7502 18.147 15.7502V14.2502ZM5.353 25.7502C6.168 25.7502 6.833 25.7502 7.378 25.6982C7.94 25.6432 8.432 25.5282 8.899 25.2632L8.16 23.9582C7.94 24.0832 7.673 24.1622 7.233 24.2052C6.777 24.2492 6.197 24.2502 5.353 24.2502V25.7502ZM9.855 21.7012C9.42 22.4252 9.121 22.9212 8.849 23.2902C8.586 23.6452 8.381 23.8332 8.16 23.9582L8.899 25.2632C9.365 24.9992 9.719 24.6362 10.054 24.1832C10.38 23.7432 10.721 23.1722 11.14 22.4732L9.855 21.7012ZM1.75 14.2502C1.55109 14.2502 1.36032 14.3292 1.21967 14.4698C1.07902 14.6105 1 14.8012 1 15.0002C1 15.1991 1.07902 15.3898 1.21967 15.5305C1.36032 15.6711 1.55109 15.7502 1.75 15.7502V14.2502ZM21.75 25.0002L22.28 25.5302C22.4205 25.3895 22.4993 25.1989 22.4993 25.0002C22.4993 24.8014 22.4205 24.6108 22.28 24.4702L21.75 25.0002ZM20.28 22.4702C20.2113 22.3965 20.1285 22.3374 20.0365 22.2964C19.9445 22.2554 19.8452 22.2333 19.7445 22.2316C19.6438 22.2298 19.5438 22.2483 19.4504 22.286C19.357 22.3238 19.2722 22.3799 19.201 22.4511C19.1297 22.5223 19.0736 22.6072 19.0359 22.7006C18.9982 22.7939 18.9796 22.894 18.9814 22.9947C18.9832 23.0954 19.0052 23.1947 19.0462 23.2867C19.0872 23.3787 19.1463 23.4615 19.22 23.5302L20.28 22.4702ZM19.22 26.4702C19.1463 26.5388 19.0872 26.6216 19.0462 26.7136C19.0052 26.8056 18.9832 26.9049 18.9814 27.0056C18.9796 27.1063 18.9982 27.2064 19.0359 27.2998C19.0736 27.3931 19.1297 27.478 19.201 27.5492C19.2722 27.6204 19.357 27.6766 19.4504 27.7143C19.5438 27.752 19.6438 27.7705 19.7445 27.7687C19.8452 27.767 19.9445 27.7449 20.0365 27.7039C20.1285 27.6629 20.2113 27.6038 20.28 27.5302L19.22 26.4702ZM14.193 22.6152C14.1445 22.5267 14.0787 22.4488 13.9994 22.3864C13.9201 22.3239 13.8291 22.2781 13.7317 22.2517C13.6343 22.2253 13.5326 22.2187 13.4326 22.2325C13.3327 22.2463 13.2365 22.2802 13.15 22.332C13.0634 22.3839 12.9881 22.4526 12.9288 22.5342C12.8694 22.6158 12.8271 22.7086 12.8044 22.8069C12.7817 22.9052 12.7791 23.0071 12.7968 23.1065C12.8144 23.2058 12.8519 23.3006 12.907 23.3852L14.193 22.6152ZM9.307 17.3862C9.41039 17.5546 9.57607 17.6754 9.76805 17.7223C9.96002 17.7693 10.1628 17.7385 10.3322 17.6368C10.5016 17.5351 10.6241 17.3706 10.6729 17.1791C10.7218 16.9876 10.693 16.7846 10.593 16.6142L9.307 17.3862ZM1.75 15.7502H6.418V14.2502H1.75V15.7502ZM17.082 25.7502H21.75V24.2502H17.082V25.7502ZM22.28 24.4702L20.28 22.4702L19.22 23.5302L21.22 25.5302L22.28 24.4702ZM21.22 24.4702L19.22 26.4702L20.28 27.5302L22.28 25.5302L21.22 24.4702ZM17.082 24.2502C16.437 24.2502 16.215 24.2472 16.019 24.2092L15.732 25.6812C16.104 25.7532 16.497 25.7502 17.082 25.7502V24.2502ZM12.907 23.3852C13.207 23.8872 13.407 24.2262 13.661 24.5082L14.776 23.5052C14.642 23.3562 14.526 23.1682 14.193 22.6152L12.907 23.3852ZM16.019 24.2092C15.5392 24.1157 15.1029 23.8686 14.776 23.5052L13.661 24.5082C14.2056 25.1137 14.9326 25.5254 15.732 25.6812L16.019 24.2092ZM6.418 15.7502C7.063 15.7502 7.285 15.7532 7.481 15.7912L7.768 14.3192C7.396 14.2472 7.003 14.2502 6.418 14.2502V15.7502ZM10.593 16.6142C10.293 16.1122 10.093 15.7742 9.839 15.4922L8.724 16.4952C8.858 16.6442 8.974 16.8332 9.307 17.3862L10.593 16.6142ZM7.481 15.7912C7.961 15.8852 8.397 16.1312 8.724 16.4952L9.839 15.4922C9.29436 14.8866 8.56739 14.4749 7.768 14.3192L7.481 15.7912Z" fill="#667085"/>
</svg>
