<svg xmlns="http://www.w3.org/2000/svg" width="24" height="24" viewBox="0 0 24 24" fill="none">
<mask id="mask0_44_706" style="mask-type:alpha" maskUnits="userSpaceOnUse" x="0" y="0" width="24" height="24">
<rect width="24" height="24" fill="#D9D9D9"/>
</mask>
<g mask="url(#mask0_44_706)">
<path d="M1.79822 19.3076V17.0844C1.79822 16.5691 1.93122 16.1091 2.19722 15.7046C2.46322 15.3001 2.81847 14.9855 3.26297 14.7606C4.2133 14.2958 5.16888 13.9374 6.12972 13.6854C7.09072 13.4336 8.1468 13.3076 9.29797 13.3076C10.4493 13.3076 11.5054 13.4336 12.4662 13.6854C13.4272 13.9374 14.3829 14.2958 15.3332 14.7606C15.7777 14.9855 16.133 15.3001 16.399 15.7046C16.665 16.1091 16.798 16.5691 16.798 17.0844V19.3076H1.79822ZM18.798 19.3076V16.9614C18.798 16.3051 18.6373 15.6795 18.316 15.0846C17.9945 14.49 17.5385 13.9797 16.948 13.5539C17.6185 13.6539 18.2551 13.8086 18.8577 14.0181C19.4602 14.2278 20.0352 14.4756 20.5827 14.7614C21.0994 15.0371 21.4984 15.362 21.7797 15.7361C22.0611 16.1101 22.2017 16.5186 22.2017 16.9614V19.3076H18.798ZM9.29797 11.6921C8.33547 11.6921 7.51155 11.3495 6.82622 10.6641C6.14088 9.97864 5.79822 9.15464 5.79822 8.19214C5.79822 7.22964 6.14088 6.40572 6.82622 5.72039C7.51155 5.03489 8.33547 4.69214 9.29797 4.69214C10.2605 4.69214 11.0845 5.03489 11.77 5.72039C12.4553 6.40572 12.798 7.22964 12.798 8.19214C12.798 9.15464 12.4553 9.97864 11.77 10.6641C11.0845 11.3495 10.2605 11.6921 9.29797 11.6921ZM17.9325 8.19214C17.9325 9.15464 17.5898 9.97864 16.9045 10.6641C16.2191 11.3495 15.3952 11.6921 14.4327 11.6921C14.3199 11.6921 14.1763 11.6793 14.002 11.6536C13.8275 11.628 13.6839 11.5998 13.5712 11.5691C13.9656 11.095 14.2686 10.569 14.4805 9.99114C14.6921 9.41331 14.798 8.81331 14.798 8.19114C14.798 7.56881 14.69 6.97105 14.474 6.39789C14.258 5.82489 13.9571 5.29739 13.5712 4.81539C13.7147 4.76406 13.8583 4.73072 14.002 4.71539C14.1455 4.69989 14.2891 4.69214 14.4327 4.69214C15.3952 4.69214 16.2191 5.03489 16.9045 5.72039C17.5898 6.40572 17.9325 7.22964 17.9325 8.19214ZM3.29797 17.8076H15.298V17.0844C15.298 16.8756 15.2457 16.6897 15.1412 16.5269C15.0369 16.3641 14.8712 16.2217 14.6442 16.0999C13.8212 15.6756 12.9738 15.3541 12.102 15.1354C11.2301 14.9169 10.2955 14.8076 9.29797 14.8076C8.30064 14.8076 7.36605 14.9169 6.49422 15.1354C5.62238 15.3541 4.77497 15.6756 3.95197 16.0999C3.72497 16.2217 3.55922 16.3641 3.45472 16.5269C3.35022 16.6897 3.29797 16.8756 3.29797 17.0844V17.8076ZM9.29797 10.1921C9.84797 10.1921 10.3188 9.99631 10.7105 9.60464C11.1021 9.21297 11.298 8.74214 11.298 8.19214C11.298 7.64214 11.1021 7.17131 10.7105 6.77964C10.3188 6.38797 9.84797 6.19214 9.29797 6.19214C8.74797 6.19214 8.27714 6.38797 7.88547 6.77964C7.4938 7.17131 7.29797 7.64214 7.29797 8.19214C7.29797 8.74214 7.4938 9.21297 7.88547 9.60464C8.27714 9.99631 8.74797 10.1921 9.29797 10.1921Z" fill="#1C1B1F"/>
</g>
</svg>