<svg width="24" height="24" viewBox="0 0 24 24" fill="none" xmlns="http://www.w3.org/2000/svg">
<g clip-path="url(#clip0_1266_7107)">
<path fill-rule="evenodd" clip-rule="evenodd" d="M20 6C20.5304 6 21.0391 6.21071 21.4142 6.58579C21.7893 6.96086 22 7.46957 22 8V18C22 18.5304 21.7893 19.0391 21.4142 19.4142C21.0391 19.7893 20.5304 20 20 20H4C3.46957 20 2.96086 19.7893 2.58579 19.4142C2.21071 19.0391 2 18.5304 2 18V8C2 7.46957 2.21071 6.96086 2.58579 6.58579C2.96086 6.21071 3.46957 6 4 6H20ZM20 8H13V10.17C13.5703 10.3716 14.0663 10.7408 14.4231 11.2293C14.7799 11.7177 14.9808 12.3026 14.9994 12.9071C15.018 13.5117 14.8534 14.1078 14.5273 14.6173C14.2012 15.1267 13.7288 15.5257 13.172 15.762L13 15.83V18H20V17H18C17.4954 17.0002 17.0094 16.8096 16.6395 16.4665C16.2695 16.1234 16.0428 15.6532 16.005 15.15L16 15V11C15.9998 10.4954 16.1904 10.0094 16.5335 9.63945C16.8766 9.26947 17.3468 9.04284 17.85 9.005L18 9H20V8ZM11 8H4V9H6C6.50458 8.99984 6.99057 9.19041 7.36055 9.5335C7.73053 9.87659 7.95716 10.3468 7.995 10.85L8 11V15C8.00016 15.5046 7.80959 15.9906 7.4665 16.3605C7.12341 16.7305 6.65316 16.9572 6.15 16.995L6 17H4V18H11V15.83C10.4297 15.6284 9.93366 15.2592 9.57688 14.7707C9.22009 14.2823 9.01923 13.6974 9.00064 13.0929C8.98204 12.4883 9.14658 11.8922 9.47267 11.3827C9.79876 10.8733 10.2712 10.4743 10.828 10.238L11 10.17V8ZM20 11H18V15H20V11ZM6 11H4V15H6V11ZM12 12C11.7348 12 11.4804 12.1054 11.2929 12.2929C11.1054 12.4804 11 12.7348 11 13C11 13.2652 11.1054 13.5196 11.2929 13.7071C11.4804 13.8946 11.7348 14 12 14C12.2652 14 12.5196 13.8946 12.7071 13.7071C12.8946 13.5196 13 13.2652 13 13C13 12.7348 12.8946 12.4804 12.7071 12.2929C12.5196 12.1054 12.2652 12 12 12Z" fill="#1570EF"/>
</g>
<defs>
<clipPath id="clip0_1266_7107">
<rect width="24" height="24" fill="white"/>
</clipPath>
</defs>
</svg>
